<?xml version="1.0" encoding="iso-8859-1"?>
<!-- Generator: Adobe Illustrator 16.0.0, SVG Export Plug-In . SVG Version: 6.00 Build 0)  -->
<!DOCTYPE svg PUBLIC "-//W3C//DTD SVG 1.1//EN" "http://www.w3.org/Graphics/SVG/1.1/DTD/svg11.dtd">
<svg version="1.1" id="Layer_1" xmlns="http://www.w3.org/2000/svg" xmlns:xlink="http://www.w3.org/1999/xlink" x="0px" y="0px"
	 width="100.626px" height="31.112px" viewBox="0 0 100.626 31.112" style="enable-background:new 0 0 100.626 31.112;"
	 xml:space="preserve">
<g>
	<path d="M98.616,2.167c-1.34,0.035-2.218,1.329-2.188,2.425C96.455,5.65,97,5.867,97.012,6.329
		c0.028,1.058-0.567,1.131-0.651,1.596c2.282-0.06,4.159-2.143,4.112-3.919C100.45,3.101,99.84,2.135,98.616,2.167z"/>
	<g>
		<g>
			<path d="M23.432,1.932c-0.029-1.113-0.892-1.984-2.975-1.93C15.605,0.129,9.636,3.99,5.4,8.754
				c-1.147-0.42-1.993-1.196-2.023-2.349C3.324,4.359,5.213,3.622,6.417,3.591c-0.361-0.359-0.807-0.504-1.63-0.483
				c-1.364,0.036-3.2,1.296-3.152,3.128c0.038,1.419,1.409,2.597,3.178,3.199c-2.934,3.495-4.894,7.392-4.81,10.629
				c0.069,2.621,2.097,5.955,5.436,5.867c4.704-0.123,9.152-7.61,9.084-10.196c-0.045-1.724-1.325-2.391-2.15-2.369
				c-2.154,0.056-4.47,3.769-4.427,5.384c0.015,0.575,0.022,1.037,0.256,1.031c0.471-0.013,0.207-1.366,1.135-2.967
				c0.486-0.839,1.208-2.107,2.235-2.134c0.79-0.021,1.131,0.496,1.15,1.25c0.077,2.945-3.588,8.422-6.245,8.491
				c-1.58,0.042-2.479-1.021-2.522-2.655c-0.076-2.877,2.33-7.725,5.508-12.019C16.727,9.037,23.523,5.407,23.432,1.932z"/>
			<path d="M93.661,22.531c1.304-1.951,1.691-4.468,1.662-5.611c-0.063-2.397-0.047-3.934,0.352-5.184l-2.806,0.009
				c-1.878,3.48-7.415,11.079-8.925,11.118c-0.565,0.015-0.67-0.346-0.679-0.683c-0.009-0.337,0.61-1.916,1.284-2.958l8.663-15.685
				h-3.075l-7.69,13.665c-1.272,2.225-3.433,5.373-4.736,5.407c-0.547,0.014-0.683-0.333-0.691-0.683
				c-0.007-0.242,0.193-0.84,0.86-2.151l8.897-16.23l-3.074,0l-6.401,11.638c-2.306,4.121-5.537,7.853-7.743,7.91
				c-0.835,0.022-1.334-0.54-1.351-1.15c-0.045-1.723,2.542-3.462,4.84-3.522c0.492-0.013,0.898-0.688,0.89-1.021
				c-0.016-0.601-1.588-0.073-2.267-1.271c2.765-0.709,5.043-1.776,5.005-3.248c-0.023-0.871-1.079-1.4-2.488-1.363
				c-1.732,0.045-6.08,1.426-6.003,4.388c0.003,0.101,0.029,0.2,0.068,0.3c-0.705,0.133-1.329,0.215-1.765,0.229
				c0.266-0.747,0.407-1.441,0.392-2.031c-0.033-1.256-0.822-2.242-2.052-2.21c-0.512,0.014-1.903,0.4-2.245,0.732l0.188-0.491
				c4.343-2.476,8.731-5.732,8.666-8.23c-0.011-0.404-0.524-1.522-1.44-1.499c-2.631,0.069-7.751,5.732-11.293,11.149
				c-1.325,0.662-2.469,1.098-3.194,1.169c-0.063-1.388-0.836-2.673-2.184-2.637c-1.158,0.03-2.494,1.061-2.919,1.288l1.479-3.051
				l-2.81,0.003c-2.466,4.727-7.151,12.542-8.349,12.574c-0.216,0.005-0.368-0.179-0.375-0.421
				c-0.024-0.943,4.251-6.957,4.204-8.761c-0.031-1.176-1.067-1.656-1.741-1.639c-1.323,0.035-2.967,1.457-3.32,1.853
				c-0.13-0.859-0.636-1.843-1.934-1.809c-0.861,0.022-1.856,0.628-2.61,1.16l-0.315-0.673l-2.585,0.002
				c-1.003,2.2-5.941,10.187-7.521,10.228c-0.604,0.016-0.462-0.931-0.045-1.724l3.899-8.504l-2.936,0.011l-0.448,0.422
				c-0.199-0.399-0.647-1.061-1.859-1.029c-3.366,0.088-8.976,6.119-8.861,10.5c0.049,1.867,1.268,2.756,2.255,2.73
				c2.232-0.059,3.964-2.525,4.328-2.97c-0.127,0.812,0.018,2.896,1.895,2.847c2.233-0.058,6.135-5.715,6.978-7.084l-3.104,6.396
				l2.859,0.014l3.622-7.545c0.595-1.3,1.369-2.125,2.188-2.147c0.489-0.013,0.611,0.199,0.62,0.536
				c0.006,0.216-0.149,0.815-0.251,1.061l-3.894,8.1l2.784-0.007l3.36-6.861c0.511-1.091,1.602-2.832,2.392-2.852
				c0.484-0.013,0.667,0.266,0.675,0.562c0.008,0.296-0.194,0.814-0.452,1.252l-2.473,4.376c-0.471,0.891-0.792,1.64-0.775,2.311
				c0.021,0.799,0.673,1.707,1.688,1.681c2.282-0.06,4.255-3.298,5.225-4.652l-5.075,10.551h2.833l3.567-7.391
				c0.231,1.135,1.152,1.749,1.945,1.728c2.584-0.067,7.486-5.518,8.001-9.557c0.651-0.213,1.558-0.578,2.604-1.053
				c-1.9,3.058-3.209,5.92-3.168,7.504c0.044,1.661,0.997,3.073,2.506,3.034c3.114-0.082,7.263-4.649,8.832-8.32
				c0.755-0.075,1.566-0.18,2.389-0.311c0.395,0.396,1.018,0.774,1.76,1.122c-1.552,0.419-5.615,2.207-5.536,5.252
				c0.036,1.373,1.038,2.385,2.582,2.344c2.06-0.054,4.85-2.633,6.203-3.909c-0.292,0.96-0.181,3.616,1.899,3.562
				c1.589-0.042,3.532-2.006,4.107-2.668c0.043,1.634,0.772,2.729,2.28,2.689c1.028-0.027,2.271-0.857,3.529-2.017l-0.046,0.045
				c0.252,0.344,1.88,1.993,3.819,1.942c1.1-0.029,2.004-0.354,2.76-0.856c1.079,0.199,2.55,0.798,3.598,0.771
				c1.622-0.042,2.31-1.48,2.559-2.115C97.2,23.148,95.139,22.77,93.661,22.531z"/>
			<path style="fill:#FFFFFF;" d="M20.416,0.96c1.202-0.031,1.28,0.523,1.294,1.044c0.055,2.091-5.001,6.04-11.637,6.938
				C13.432,4.613,17.495,1.037,20.416,0.96z"/>
			<path style="fill:#FFFFFF;" d="M69.005,4.026c0.431-0.012,0.485,0.014,0.499,0.553c0.042,1.595-2.945,4.304-6.249,6.564
				C64.013,9.447,67.631,4.062,69.005,4.026z"/>
			<path style="fill:#FFFFFF;" d="M71.363,14.825c-0.017-0.655,1.312-2.379,2.659-2.414c0.484-0.013,0.626,0.226,0.634,0.522
				c0.024,0.954-1.473,1.804-3.241,2.429C71.387,15.199,71.368,15.023,71.363,14.825z"/>
			<path style="fill:#FFFFFF;" d="M90.478,22.218c-0.638,0.457-2.091,0.645-3.554-0.574l0,0c2.238-2.425,4.274-5.32,4.944-5.901
				C91.421,16.315,92.976,20.075,90.478,22.218z"/>
			<path style="fill:#FFFFFF;" d="M62.64,14.11c-1.984,0.052-4.814,6.549-4.773,8.103c0.021,0.834,0.562,0.928,0.832,0.921
				c2.011-0.052,5.038-6.231,4.994-7.919C63.677,14.604,63.286,14.093,62.64,14.11z"/>
			<path style="fill:#FFFFFF;" d="M46.45,22.619c0.012,0.458,0.32,0.881,0.804,0.869c1.921-0.05,5.2-6.236,5.16-7.762
				c-0.013-0.521-0.246-1.139-1-1.119C49.081,14.668,46.436,22.09,46.45,22.619z"/>
			<path style="fill:#FFFFFF;" d="M24.063,14.69c-0.007-0.27-0.186-0.912-0.725-0.897c-1.975,0.052-5.733,6.429-5.68,8.476
				c0.014,0.539,0.483,0.984,0.807,0.976C20.441,23.193,24.119,16.835,24.063,14.69z"/>
		</g>
		<g>
			<path d="M97.073,25.687c0-0.945,0.798-1.718,1.781-1.718c0.979,0,1.772,0.773,1.772,1.718c0,0.964-0.792,1.737-1.772,1.737
				C97.871,27.424,97.073,26.65,97.073,25.687"/>
			<path style="fill:#FFFFFF;" d="M98.854,24.306c-0.803,0-1.443,0.617-1.443,1.38c0,0.788,0.641,1.399,1.443,1.399
				c0.793,0,1.435-0.611,1.435-1.399C100.289,24.923,99.647,24.306,98.854,24.306z"/>
			<path d="M98.487,25.77h0.348l0.568,0.891h0.337l-0.602-0.891c0.353-0.01,0.626-0.152,0.626-0.533c0-0.162-0.074-0.333-0.22-0.416
				c-0.151-0.083-0.318-0.093-0.484-0.093h-0.866v1.933h0.293V25.77z"/>
			<path style="fill:#FFFFFF;" d="M98.487,24.947h0.515c0.249,0,0.47,0.034,0.47,0.284c0,0.347-0.382,0.298-0.661,0.298h-0.323
				V24.947z"/>
		</g>
	</g>
</g>
</svg>
