<?xml version="1.0" encoding="iso-8859-1"?>
<!-- Generator: Adobe Illustrator 16.0.0, SVG Export Plug-In . SVG Version: 6.00 Build 0)  -->
<!DOCTYPE svg PUBLIC "-//W3C//DTD SVG 1.1//EN" "http://www.w3.org/Graphics/SVG/1.1/DTD/svg11.dtd">
<svg version="1.1" id="Layer_1" xmlns="http://www.w3.org/2000/svg" xmlns:xlink="http://www.w3.org/1999/xlink" x="0px" y="0px"
	 width="57.958px" height="46.299px" viewBox="0 0 57.958 46.299" style="enable-background:new 0 0 57.958 46.299;"
	 xml:space="preserve">
<path d="M56.025,18.525c-1.137-4.963-3.789-8.725-7.882-11.18c-3.729-2.237-7.366-2.553-8.058-2.594
	c-1.56-0.092-3.607,0.162-5.744,0.813c-0.057-0.167-0.175-0.312-0.338-0.397c-0.557-0.358-2.094-0.858-3.631-0.259l-0.019,0.008
	c-0.104,0.045-0.2,0.098-0.298,0.148c0.229-0.578,0.299-1.106,0.299-1.531c0-0.02,0-0.039,0-0.058
	c-0.027-1.857-1.08-2.796-1.586-3.247L28.75,0.213c0.002,0.001-0.008-0.008-0.008-0.008C28.685,0.149,28.533,0,28.256,0
	c-0.268,0-0.422,0.151-0.473,0.201L27.77,0.213l-0.017,0.015c-0.506,0.451-1.56,1.39-1.585,3.249c0,0.019,0,0.039,0,0.058
	c0,0.425,0.07,0.953,0.298,1.53c-0.098-0.051-0.193-0.104-0.298-0.148l-0.01-0.004l-0.009-0.003c-1.536-0.599-3.072-0.1-3.63,0.258
	c-0.164,0.086-0.283,0.231-0.339,0.398c-2.136-0.651-4.185-0.905-5.746-0.813c-0.691,0.041-4.327,0.357-8.055,2.594
	C4.285,9.8,1.633,13.561,0.496,18.525c-1.987,8.69,2.576,14.185,3.511,15.198c1.472,1.661,4.198,4.722,10.488,3.352
	c1.487,4.682,5.654,5.364,7.423,5.435c2.26,0.055,4.203,0.103,5.858,2.957l0.482,0.833l0.483-0.832
	c1.657-2.854,3.601-2.902,5.851-2.957c1.778-0.072,5.946-0.754,7.433-5.436c6.291,1.37,9.016-1.691,10.496-3.361
	C53.448,32.708,58.01,27.208,56.025,18.525z"/>
<path style="fill:#FFFFFF;" d="M52.104,33.344C51.992,33.465,52.227,33.206,52.104,33.344c-1.48,1.67-4.129,4.656-10.468,3.074
	c-1.136,4.383-4.642,5.438-7.056,5.535l0,0c-2.347,0.057-4.536,0.16-6.32,3.234l0,0l0,0c-1.782-3.074-3.969-3.177-6.318-3.234l0,0
	c-2.413-0.097-5.92-1.152-7.056-5.535C8.546,38,5.897,35.015,4.417,33.344c-0.124-0.139,0.11,0.121,0,0
	c-0.873-0.945-5.3-6.287-3.377-14.694c1.101-4.808,3.666-8.452,7.625-10.826c3.615-2.168,7.133-2.476,7.801-2.515
	c3.068-0.182,8.056,1.003,11.79,4.024C32,6.312,36.986,5.127,40.053,5.309c0.669,0.039,4.188,0.347,7.803,2.515
	c3.958,2.374,6.523,6.018,7.625,10.826C57.403,27.057,52.975,32.399,52.104,33.344z"/>
<path style="fill:#FFFFFF;" d="M28.256,6.578c0.075,0,0.071-0.011,0.173-0.095c0.263-0.263,1.391-1.367,1.367-2.999
	c-0.023-1.632-0.936-2.425-1.417-2.854c-0.052-0.046-0.061-0.071-0.123-0.071c-0.053,0-0.062,0.025-0.115,0.071
	c-0.482,0.43-1.394,1.223-1.416,2.854c-0.024,1.632,1.102,2.736,1.366,2.999C28.194,6.567,28.193,6.578,28.256,6.578z"/>
<path style="fill:#FFFFFF;" d="M22.815,5.883c1.331,0.264,1.488,0.359,2.495,0.755c1.007,0.397,2.471,1.441,2.543,1.513
	c0.072,0.072,0.177,0.06,0.144-0.121c-0.277-1.486-1.141-2.207-2.052-2.602c-1.416-0.552-2.808-0.015-3.155,0.226
	C22.67,5.704,22.659,5.883,22.815,5.883z"/>
<path style="fill:#FFFFFF;" d="M33.73,5.654c-0.347-0.241-1.74-0.778-3.155-0.226C29.664,5.823,28.8,6.543,28.524,8.03
	c-0.033,0.181,0.071,0.193,0.143,0.121c0.073-0.072,1.537-1.116,2.544-1.513c1.007-0.396,1.164-0.491,2.495-0.755
	C33.862,5.883,33.85,5.704,33.73,5.654z"/>
<path d="M28.244,41.817c0.496-1.946,2.607-2.562,4.047-2.371c1.439,0.193,4.608-0.479,5.663-1.056
	c1.055-0.576,2.974-2.783,2.496-4.988c6.815,3.168,10.651-2.209,11.418-3.358c0.768-1.153,4.894-6.432,1.825-13.726
	c-3.118-7.4-9.021-8.25-12.443-8.302c-3.418-0.049-8.574,1.777-12.993,4.728c-4.411-2.95-9.565-4.777-12.985-4.728
	c-3.42,0.052-9.325,0.902-12.441,8.302c-3.07,7.294,1.055,12.572,1.823,13.726c0.769,1.149,4.604,6.527,11.419,3.358
	c-0.479,2.205,1.439,4.412,2.497,4.988c1.054,0.577,4.222,1.249,5.661,1.056C25.67,39.255,27.751,39.871,28.244,41.817z"/>
<path style="fill:#FFFFFF;" d="M5.747,17.673c0.121-0.839,0.526-1.582,1.392-1.87c0.791-0.192,1.68-0.426,3.107-0.271
	c1.066,0.248,1.738,1.302,1.738,2.311v5.926c0,0.529-0.049,0.743-0.288,1.032l-1.32,1.606c-0.409,0.385-1.416,0.576-2.159,0.336
	c-0.743-0.241-1.559-0.505-2.062-0.527c-0.504-0.025-1.243,0.063-1.81,0.259c0.852-0.523,2.479-2.034,2.479-3.354v-3.841
	c-0.022-0.695,0.385-1.055,0.65-1.294l1.043-0.979C7.509,16.994,6.68,16.954,5.747,17.673z"/>
<path style="fill:#FFFFFF;" d="M39.07,19.437c0,0-0.551-0.455-0.839-0.599c-0.14-0.087-0.277-0.108-0.457,0.096
	c-0.181,0.203-0.61,0.759-0.708,0.889c-0.096,0.13-0.071,0.287,0.097,0.431c0.167,0.144,0.466,0.265,0.466,0.792v5.581
	c0,0.358,0.193,0.358,0.348,0.358h0.959c0.288,0,0.322-0.205,0.325-0.384v-5.337c0-0.602,0.002-1.256,0.445-1.283
	c0.443-0.028,0.622,0.466,0.622,1.111v4.023c-0.012,0.562,0.023,1.719,1.946,1.873c0.252,0.008,0.334-0.04,0.417-0.195l0.323-0.636
	c0.121-0.3,0.012-0.407-0.106-0.456c-0.121-0.048-0.947-0.156-0.937-0.864v-4.164c0-0.781-0.373-1.723-1.382-1.923
	c-0.633-0.106-1.09,0.496-1.184,0.686C39.322,19.605,39.142,19.485,39.07,19.437z"/>
<path style="fill:#FFFFFF;" d="M32.88,19.833c-0.337,0.312-0.433,0.503-0.433,1.008v4.249c-0.024,0.623,0.121,1.2,0.816,1.536
	c0.697,0.335,1.56,0.599,1.967,0.238l0.912-0.887c0.36-0.432,0.406-0.791,0.406-1.176v-4.128c0-0.959-0.502-1.393-0.79-1.561
	c-0.288-0.167-0.672-0.479-1.199-0.408c-0.528,0.072-0.696,0.168-0.912,0.383L32.88,19.833z"/>
<path style="fill:#FFFFFF;" d="M14.862,18.825l-1.343,1.104c-0.432,0.359-0.526,0.312-0.554,1.367v3.695
	c0,0.721,0.249,1.546,1.384,1.733l1.353,0.235c0.409,0.071,0.456-0.145,0.527-0.264l0.241-0.648c0.095-0.239,0-0.36-0.265-0.408
	l-0.936-0.265c-0.38-0.173-0.605-0.346-0.603-0.627v-0.547c0.003-0.265,0.003-0.337,0.243-0.504c0.24-0.168,1.489-1.151,1.918-1.826
	c0.433-0.669,0.529-1.439,0.121-1.992C16.613,19.425,15.703,18.033,14.862,18.825z"/>
<path style="fill:#FFFFFF;" d="M49.076,18.825l-1.345,1.104c-0.434,0.359-0.528,0.312-0.553,1.367v3.695
	c0,0.721,0.245,1.546,1.382,1.733l1.352,0.235c0.408,0.071,0.457-0.145,0.528-0.264l0.24-0.648c0.097-0.239,0-0.36-0.265-0.408
	l-0.937-0.265c-0.381-0.173-0.604-0.346-0.601-0.627v-0.547c0.002-0.265,0.002-0.337,0.241-0.504
	c0.242-0.168,1.489-1.151,1.919-1.826c0.433-0.669,0.528-1.439,0.121-1.992C50.824,19.425,49.913,18.033,49.076,18.825z"/>
<path style="fill:#FFFFFF;" d="M45.426,17.601v1.66h0.697c0.286-0.004,0.301,0.188,0.301,0.308v0.54
	c0,0.167-0.102,0.284-0.291,0.286h-0.707v4.213c0,0.374-0.022,0.686,0.468,0.877l0.457,0.181c0.251,0.083,0.24,0.322,0.191,0.491
	l-0.241,0.601c-0.094,0.204-0.418,0.322-0.946,0.215c-0.529-0.108-1.668-0.312-1.668-1.714v-5.043h-0.263
	c-0.3,0.001-0.276-0.167-0.276-0.251v-0.54c0-0.179,0.12-0.203,0.25-0.203c0.133,0,0.274-0.075,0.288-0.14v-0.856
	c0-0.275,0.18-0.408,0.349-0.469l0.875-0.372C45.164,17.278,45.426,17.278,45.426,17.601z"/>
<path style="fill:#FFFFFF;" d="M31.8,25.605l-0.469-0.18c-0.312-0.12-0.432-0.372-0.432-0.672V18.13
	c0-1.032-0.183-2.111-1.447-2.128c-0.484,0.005-0.976,0.246-1.55,0.783c-0.147,0.127-0.419,0.181-0.573,0.038
	c-0.23-0.242-0.818-0.708-1.072-0.804c-0.25-0.096-1.086-0.293-1.861,0.92l-1.054-0.825c-0.347-0.275-0.553-0.155-0.707,0.012
	l-0.612,0.659c-0.204,0.216-0.085,0.541,0.06,0.662l0.48,0.418c0.25,0.216,0.419,0.266,0.419,1.009v7.69
	c0,0.372,0.234,0.379,0.376,0.381h1.002c0.229,0.003,0.337-0.141,0.35-0.393v-8.064c0.012-0.732,0.395-0.911,0.623-0.924
	c0.228-0.011,0.743,0.3,0.731,1.309v7.69c0,0.372,0.236,0.379,0.375,0.381h1.003c0.229,0.003,0.337-0.141,0.348-0.393v-8.064
	c0-0.791,0.349-0.932,0.541-0.927c0.193,0.003,0.84,0.256,0.84,1.083v6.409c0,0.744,0.048,1.714,2.004,1.907
	c0.287,0.023,0.371-0.038,0.455-0.228l0.288-0.697C32.003,25.82,31.968,25.666,31.8,25.605z"/>
<path style="fill:#FFFFFF;" d="M19.553,16.332v8.42c0,0.301,0.12,0.552,0.434,0.672l0.586,0.228c0.166,0.06,0.205,0.216,0.121,0.432
	l-0.276,0.66c-0.083,0.192-0.173,0.252-0.458,0.228c-1.955-0.192-2.146-0.875-2.135-1.919v-8.027
	c0.013-0.276,0.133-0.372,0.217-0.42l1.103-0.633C19.336,15.852,19.553,15.998,19.553,16.332z"/>
<path d="M56.152,9.348c1.002,0,1.806-0.81,1.806-1.816c0-0.997-0.804-1.807-1.806-1.807c-1.007,0-1.817,0.81-1.817,1.807
	C54.335,8.539,55.145,9.348,56.152,9.348z"/>
<path d="M9.25,17.482l-0.691,0.993v4.623c-0.005,0.671-0.064,0.808-0.275,1.109l-0.57,0.907c0.625,0.118,1.646,0.204,2.036-0.01
	c0.388-0.208,0.484-1.024,0.484-1.479v-5.449C10.233,17.194,9.524,17.114,9.25,17.482z"/>
<path d="M33.972,20.629v3.788c0.012,0.816,0.393,1.175,0.514,1.224c0.123,0.046,0.41,0.144,0.41-0.265v-3.724
	c-0.05-1.004-0.329-1.361-0.62-1.41C33.984,20.192,33.985,20.513,33.972,20.629z"/>
<path d="M14.75,20.477v1.853c-0.007,0.504,0.328,0.336,0.473,0.239c0.144-0.095,0.718-0.647,0.647-1.223
	C15.798,20.768,15.358,19.897,14.75,20.477z"/>
<path d="M48.96,20.477v1.611c-0.007,0.505,0.331,0.337,0.476,0.242c0.143-0.097,0.622-0.58,0.549-1.155
	C49.913,20.602,49.567,19.897,48.96,20.477z"/>
<path style="fill:#FFFFFF;" d="M56.152,9.03c-0.829,0-1.499-0.669-1.499-1.498c0-0.819,0.67-1.488,1.499-1.488
	c0.824,0,1.489,0.669,1.489,1.488C57.641,8.36,56.976,9.03,56.152,9.03z"/>
<path d="M56.045,7.653c0.115,0.009,0.227,0,0.309,0.086c0.096,0.101,0.096,0.27,0.12,0.453c0.015,0.125,0.049,0.261,0.072,0.38
	h0.424c-0.072-0.192-0.096-0.414-0.125-0.617c-0.033-0.231-0.067-0.361-0.361-0.419v-0.01c0.284-0.058,0.434-0.25,0.434-0.496
	c0-0.482-0.404-0.588-0.795-0.588h-0.688v2.129h0.332V7.653H56.045z"/>
<path style="fill:#FFFFFF;" d="M55.766,7.32V6.775h0.4c0.265,0,0.337,0.082,0.337,0.241c0,0.164-0.072,0.294-0.386,0.304H55.766z"/>
</svg>
