<?xml version="1.0" encoding="iso-8859-1"?>
<!-- Generator: Adobe Illustrator 16.0.0, SVG Export Plug-In . SVG Version: 6.00 Build 0)  -->
<!DOCTYPE svg PUBLIC "-//W3C//DTD SVG 1.1//EN" "http://www.w3.org/Graphics/SVG/1.1/DTD/svg11.dtd">
<svg version="1.1" id="Layer_1" xmlns="http://www.w3.org/2000/svg" xmlns:xlink="http://www.w3.org/1999/xlink" x="0px" y="0px"
	 width="53.509px" height="14.64px" viewBox="0 0 53.509 14.64" style="enable-background:new 0 0 53.509 14.64;"
	 xml:space="preserve">
<path d="M6.12,12.9C2.723,12.732,0.019,9.918,0,6.48C0.019,2.914,2.903,0.029,6.48,0c1.539,0.029,2.967,0.581,4.08,1.5L8.88,4.44
	C8.308,3.728,7.436,3.29,6.48,3.3C4.705,3.29,3.28,4.715,3.3,6.48C3.28,8.23,4.705,9.654,6.48,9.66c0.542-0.005,1.068-0.15,1.5-0.42
	V6.9l3.54-0.78v7.8l-3.54,0.72V9.72L6.12,12.9z"/>
<path d="M19.26,0c-3.569,0.029-6.454,2.914-6.48,6.48c0.026,3.551,2.911,6.436,6.48,6.42c3.549,0.016,6.434-2.869,6.42-6.42
	C25.693,2.914,22.809,0.029,19.26,0z"/>
<path style="fill:#FFFFFF;" d="M19.26,9.66c-1.768-0.005-3.192-1.43-3.18-3.18c-0.012-1.765,1.412-3.19,3.18-3.18
	c1.747-0.01,3.172,1.415,3.18,3.18C22.432,8.23,21.007,9.654,19.26,9.66z"/>
<path d="M34.38,0.3v4.26c0.013,1.116-0.908,2.036-2.04,2.04c-1.138-0.004-2.058-0.924-2.04-2.04V0.3H27v4.26
	c-0.006,2.368,1.56,4.39,3.72,5.1v2.94h3.24v-3c2.171-0.671,3.721-2.685,3.72-5.04V0.3H34.38z"/>
<path d="M42.48,10.44h5.1v2.16h3.24V5.94c0.005-3.192-2.589-5.787-5.76-5.76c-3.229-0.027-5.822,2.567-5.82,5.76v6.66h3.24V10.44z"
	/>
<path style="fill:#FFFFFF;" d="M42.48,5.94c0.019-1.391,1.153-2.525,2.58-2.52c1.37-0.005,2.504,1.129,2.521,2.52v1.2h-5.1V5.94z"/>
<path d="M52.564,12.493c0.523,0,0.945-0.425,0.945-0.95c0-0.52-0.422-0.945-0.945-0.945c-0.525,0-0.95,0.425-0.95,0.945
	C51.614,12.068,52.039,12.493,52.564,12.493z M52.564,12.368c-0.462,0-0.8-0.36-0.8-0.825c0-0.46,0.338-0.82,0.8-0.82
	c0.46,0,0.795,0.36,0.795,0.82C53.359,12.008,53.024,12.368,52.564,12.368z M52.717,11.585c0.188-0.005,0.332-0.083,0.332-0.29
	c0-0.175-0.095-0.28-0.375-0.28h-0.462v1.058h0.13v-0.487h0.237l0.303,0.487h0.154L52.717,11.585z M52.342,11.483v-0.375h0.302
	c0.13,0,0.265,0.02,0.265,0.185c0,0.215-0.22,0.19-0.37,0.19H52.342z"/>
</svg>
