<?xml version="1.0" encoding="iso-8859-1"?>
<!-- Generator: Adobe Illustrator 16.0.0, SVG Export Plug-In . SVG Version: 6.00 Build 0)  -->
<!DOCTYPE svg PUBLIC "-//W3C//DTD SVG 1.1//EN" "http://www.w3.org/Graphics/SVG/1.1/DTD/svg11.dtd">
<svg version="1.1" id="Layer_1" xmlns="http://www.w3.org/2000/svg" xmlns:xlink="http://www.w3.org/1999/xlink" x="0px" y="0px"
	 width="38.22px" height="14.7px" viewBox="0 0 38.22 14.7" style="enable-background:new 0 0 38.22 14.7;" xml:space="preserve">
<path d="M36.12,14.7l2.1-7.26l-2.94-0.96L36,3.24C30.2,0.625,22.7,0.025,19.08,0C15.5,0.025,8,0.625,2.22,3.24l0.66,3.24L0,7.44
	l2.1,7.26H36.12z"/>
<path style="fill:#FFFFFF;" d="M12.9,9.78c0,0,0.95-4.28,2.22-6.84c-0.37-0.065-1.157-0.252-1.86-0.12
	C12.688,3.062,12.425,3.4,12,4.86l-0.54,2.16H9.9l0.9-3.72c0.087-0.35-0.1-0.612-0.54-0.6C9.575,2.688,7.287,2.65,5.82,3.24
	c-2.543,0.953-1.607,3.272-1.2,4.2c0.417,0.873,2.143-0.027,1.86-0.6C5.337,4.225,6.688,3.887,7.2,3.66
	c0.462-0.222,1.438-0.297,1.2,0.78l-0.72,3C7.512,8.2,6.725,11.387,5.4,11.7c-1.3,0.288-1.675-2.862-1.68-3.72
	C3.649,7.487,1.812,7.938,1.8,9.24c-0.213,2.973,2.037,4.173,4.26,3.18c2.587-1.208,3.103-2.232,3.6-4.2V8.04h1.5l-0.9,3.6
	c-0.31,1.039,1.438,1.486,2.52,0.36c0.151-0.181,0.328-0.496,0-0.78C12.669,10.905,12.717,10.46,12.9,9.78z"/>
<path style="fill:#FFFFFF;" d="M21.36,3c-0.647,0.512-0.835,1.45-0.48,1.8c0.395,0.325,1.201,0.157,1.8-0.42
	c0.395-0.417,0.474-1.132,0.3-1.44C22.812,2.65,22.1,2.575,21.36,3z"/>
<path style="fill:#FFFFFF;" d="M20.04,6.06c0.597-0.354,0.972-0.41,1.38-0.54c0.417-0.17,1.018-0.058,0.78,0.72
	c-0.212,0.798-1,3.348-1.2,4.44c-0.082,0.332-0.1,0.426,0.06,0.66c0.325,0.348,0.068,0.641-0.12,0.78
	c-0.302,0.168-1.165,0.393-1.86,0.48c-0.655,0.062-0.655-0.613-0.48-1.2c0.2-0.612,1.08-3.96,1.08-3.96
	c0.095-0.402,0.058-0.59,0-0.66C19.546,6.659,19.512,6.344,20.04,6.06z"/>
<path style="fill:#FFFFFF;" d="M23.1,6.78c0.144,0.295,0.069,0.558,0,0.84l-1.02,3.9c-0.186,0.768,0.114,1.124,0.78,1.08
	c0.721,0.006,1.152-0.256,1.32-0.9l0.66-2.58c0.204-0.789,0.729-2.007,1.26-2.04c0.481-0.08,0.707-0.062,0.36,1.14l-0.84,2.88
	c-0.22,0.869-0.201,1.52,0.78,1.56c0.781,0.003,1.269-0.372,1.56-0.54c0.271-0.207,0.29-0.545,0.06-0.78
	c-0.182-0.177-0.295-0.309-0.12-0.9l1.08-3.36c0.246-0.792,0.189-1.58-0.84-1.62c-1.034,0.002-1.915,0.659-2.4,0.96
	c-0.002-0.395-0.04-1.126-0.78-0.9c-0.798,0.261-1.397,0.505-1.8,0.72C22.869,6.344,22.869,6.606,23.1,6.78z"/>
<path style="fill:#FFFFFF;" d="M30.12,7.74c0.268-0.083,1.206-0.065,1.8-0.06l-3.18,3.72c-0.377,0.4-0.509,1.244,0.6,1.26h3.54
	c1.089-0.016,1.895-0.597,2.76-2.04c0.766-1.251,0.823-2.457-0.42-2.76c-0.613-0.11-0.764,0.078-0.96,0.36
	c-0.216,0.28-0.403,0.618-0.06,0.9c0.256,0.168,0.894,0.149,0.78,0.78c-0.073,0.606-0.636,0.625-1.68,0.66l-2.4,0.06l3.42-4.2
	c0.324-0.489,0.062-0.882-0.48-0.9l-2.7,0.06c-0.583,0.032-0.977,0.295-1.32,0.9l-0.36,0.66C29.244,7.637,29.506,7.956,30.12,7.74z"
	/>
<path style="fill:#FFFFFF;" d="M15.96,9.06c2.866,0.003,3.55-2.403,3.12-3.12c-0.392-0.703-1.405-0.421-2.46-0.06
	c-2.451,0.783-2.92,3.501-2.94,4.56c-0.055,1.041,0.227,2.241,1.5,2.22c1.276-0.054,2.326-0.597,2.76-1.2
	c0.392-0.56,0.11-0.841-0.3-0.66c-1.708,0.587-1.84-0.125-1.74-1.56C15.917,9.187,15.926,9.124,15.96,9.06z"/>
<path d="M16.14,8.16c0.273-1.179,0.816-1.863,1.08-1.8c0.286,0.04,0.192,0.377,0.06,0.84C17,8.181,16.587,8.2,16.14,8.16z"/>
</svg>
