<?xml version="1.0" encoding="iso-8859-1"?>
<!-- Generator: Adobe Illustrator 16.0.0, SVG Export Plug-In . SVG Version: 6.00 Build 0)  -->
<!DOCTYPE svg PUBLIC "-//W3C//DTD SVG 1.1//EN" "http://www.w3.org/Graphics/SVG/1.1/DTD/svg11.dtd">
<svg version="1.1" id="Layer_1" xmlns="http://www.w3.org/2000/svg" xmlns:xlink="http://www.w3.org/1999/xlink" x="0px" y="0px"
	 width="44.807px" height="13.018px" viewBox="0 0 44.807 13.018" style="enable-background:new 0 0 44.807 13.018;"
	 xml:space="preserve">
<path d="M23.55,4.947c0.613-0.496,2.8-2.275,2.1-4.084c-0.244-0.526-0.729-0.204-0.729,0c-0.292-0.175-0.99-0.308-0.962,0.438
	c-0.438-0.087-1.05,0.817-0.379,1.108C24.25,2.701,24.979,3.168,23.55,4.947z"/>
<path d="M25.85,3.12c0.248-0.365,0.671-1.561,0.263-2.305c-0.161-0.292,0.233-0.816,0.758-0.481c0.029-0.306,0.803-0.54,0.978-0.058
	c0.146-0.117,0.908-0.045,0.551,0.596c0.645-0.011,0.47,0.381,0.164,0.483C28.256,1.457,26.55,2.333,25.85,3.12z"/>
<path d="M25.485,3.98c0.481-0.423,2.108-1.583,3.056-1.918c0.588-0.133,0.862,0.164,0.512,0.689
	c0.417,0.364,0.231,1.104-0.523,0.923c0.131,0.452-0.189,0.709-0.574,0.669C27.72,3.409,27.177,3.149,25.485,3.98z"/>
<path d="M40.354,3.062c0.036-0.132-0.024-0.192-0.12-0.18c-0.216,0.012-1.764,0.024-1.968-0.012l-0.048,0.24
	c0.072,0.036,0.132,0.204,0.108,0.288l-1.62,6.155c-0.048,0.216,0.023,0.264,0.144,0.216c0.372-0.072,1.38-0.048,1.932-0.012
	l0.072-0.312c-0.108-0.096-0.12-0.252-0.06-0.432L40.354,3.062z"/>
<path d="M14,9.928c1.481,0,2.982-1.125,3.354-2.511c0.372-1.387-0.527-2.512-2.008-2.512c-1.481,0-2.982,1.125-3.354,2.512
	C11.621,8.804,12.52,9.928,14,9.928z"/>
<path style="fill:#FFFFFF;" d="M14.109,9.521c0.543,0,1.237-0.942,1.548-2.104c0.312-1.162,0.123-2.104-0.42-2.104
	S14,6.255,13.689,7.417S13.566,9.521,14.109,9.521z"/>
<path d="M7.317,6.577c0.24-0.18,1.271-0.768,2.063-0.996l0.576-2.184C9.98,3.313,9.92,3.146,9.848,3.109l0.048-0.24
	c0.204,0.036,1.751,0.024,1.968,0.012c0.096-0.012,0.156,0.048,0.12,0.18l-1.56,5.951c-0.06,0.18-0.048,0.336,0.06,0.432
	l-0.072,0.312C9.86,9.721,8.853,9.696,8.48,9.769c-0.12,0.048-0.192,0-0.144-0.216l0.816-3.096c-0.576,0.096-1.32,0.264-2.003,0.744
	L6.681,9.013c-0.06,0.18-0.048,0.336,0.06,0.432L6.668,9.757c-0.552-0.036-1.56-0.061-1.932,0.012c-0.12,0.048-0.192,0-0.144-0.216
	l1.62-6.155c0.024-0.084-0.036-0.252-0.107-0.288l0.048-0.24c0.204,0.036,1.752,0.024,1.968,0.012
	c0.096-0.012,0.156,0.048,0.12,0.18L7.317,6.577z"/>
<path d="M20.345,5.341c0.132-0.024,0.228,0.012,0.168,0.132l-0.084,0.18c-0.06,0.144,0.024,0.276,0.132,0.192
	c0.168-0.288,0.528-0.756,0.708-0.96c0.972-1.044,1.824-0.66,1.92-0.563c0.096,0.096,0.156,0.252,0.084,0.348l-1.056,1.296
	c-0.06,0.06-0.156,0.036-0.132-0.072c0.048-0.192-0.012-0.372-0.156-0.432c-0.744-0.204-1.5,1.092-1.607,1.488l-0.528,2.064
	c-0.06,0.18-0.048,0.336,0.06,0.432l-0.072,0.312c-0.552-0.036-1.56-0.061-1.932,0.012c-0.12,0.048-0.192,0-0.145-0.216l0.96-3.684
	c0.024-0.084-0.036-0.252-0.108-0.288l0.048-0.24C19.168,5.389,20.021,5.377,20.345,5.341z"/>
<path d="M27.499,6.949c0.108-0.42,0.576-1.26,1.092-1.272c0.252,0,0.384,0.3,0.264,0.756l-0.816,3.12
	c-0.048,0.216,0.024,0.264,0.144,0.216c0.372-0.072,1.38-0.048,1.932-0.012l0.072-0.312c-0.108-0.096-0.12-0.252-0.061-0.432
	l0.576-2.232c0.336-1.296-0.444-1.919-1.2-1.919c-1.056,0-1.8,0.684-2.028,0.996c-0.12-0.648-0.684-0.924-1.248-0.924
	c-0.984-0.012-1.392,0.66-1.452,0.768c-0.06,0.108-0.168,0.048-0.132-0.036l0.072-0.288c0.06-0.24-0.168-0.3-0.372-0.18
	l-1.896,1.116c-0.12,0.072-0.061,0.216,0,0.216c0.06,0,0.072,0.084,0.023,0.18l-0.744,2.844c-0.048,0.216,0.024,0.264,0.144,0.216
	c0.372-0.072,1.38-0.048,1.932-0.012l0.072-0.312c-0.108-0.096-0.12-0.252-0.06-0.432l0.528-2.064
	c0.108-0.42,0.576-1.26,1.092-1.272c0.252,0,0.384,0.3,0.264,0.756l-0.816,3.12c-0.048,0.216,0.024,0.264,0.144,0.216
	c0.372-0.072,1.38-0.048,1.932-0.012l0.072-0.312c-0.107-0.096-0.12-0.252-0.06-0.432L27.499,6.949z"/>
<path d="M36.75,6.913c0.144-0.696,0.216-1.968-1.44-2.088s-3.383,0.84-3.624,2.616c-0.12,0.864-0.024,2.4,1.992,2.448
	c1.152,0,2.28-0.924,2.64-1.308l-0.288-0.312c-0.432,0.384-0.888,0.744-1.752,0.732c-0.744-0.011-1.056-0.912-0.792-2.088H36.75z"/>
<path style="fill:#FFFFFF;" d="M33.631,6.481c0.096-0.336,0.334-1.056,1.008-1.056c0.648,0,0.456,0.936,0.24,1.056H33.631z"/>
<path d="M23.159,1.329H7.588C1.026,2.017,1.151,6.954,1.151,6.954c-0.188,6.062,9.75,4.938,9.75,4.938
	c5.438-0.688,6.438-2.312,6.438-2.312c-4,4.188-9.75,3.375-9.75,3.375c-8.438-0.5-7.562-6.062-7.562-6.062
	c0.75-6.312,7.625-6.25,7.625-6.25h15.742C23.393,0.642,23.127,0.813,23.159,1.329z"/>
<path d="M29.354,1.329h7.172c0,0,6.875-0.75,7.312,5.625c0,0,0.688,4.719-7.375,4.719H15.385c0,0-1.156,0.977-3.172,1.281h24.25
	c0,0,8.688,0.312,8.333-6c0,0-0.083-6.417-8.271-6.312h-7.469C29.057,0.642,29.651,0.892,29.354,1.329z"/>
</svg>
